<svg xmlns="http://www.w3.org/2000/svg" width="345.319" height="137.435" viewBox="0 0 345.319 137.435"><g transform="translate(-72.039 -63.474)"><g transform="translate(-456 -139)"><path d="M446.827-328.56c5.393,4.278,12.8,7.131,19.189,10.874,1.288.754,5.118,3.667,6.556,3.677a13.622,13.622,0,0,0,3.038-1.438c5.394-2.713,9.745-5.623,14.711-8.316,3.338-1.81,5.683-3.738,9.276-4.8a137,137,0,0,0,12.151,7.036c1.959.974,4.343,1.88,6.558,3.2,1.184.707,4.677,3.668,6.235,3.679.748,0,2.354-1.184,3.519-1.759,1.393-.689,2.647-1.26,3.517-1.759,6.778-3.884,13.959-7.658,19.51-12.312-.171-4.665.7-9.119.479-13.752-.092-1.981-.6-4.114-.8-6.4-.189-2.133.193-5.006-.32-6.876-.561-2.048-4.173-3.582-5.917-4.637a138.182,138.182,0,0,0-13.591-7.676c-2.029-.966-6.673-1.86-7.2-3.517-.472-1.5.219-4.464.321-6.4.265-5.079-.27-8.312-.64-12.793-.179-2.143.153-4.825-.32-6.555-.431-1.571-3.127-2.871-5.277-4.158-4.239-2.535-7.921-4.828-11.994-6.876-2.249-1.131-4.375-1.895-6.716-2.877-1.2-.5-2.284-1.514-3.517-1.76a7.633,7.633,0,0,0-2.239.96c-.464.267-1.339,1.117-1.92,1.439-4.652,2.591-11.692,5.639-16.629,9.115-1.548,1.089-4.232,2.925-4.638,4-.511,1.348-.4,3.744-.478,5.756-.288,7.169.32,15.765,0,21.587-6.092,3.682-12.822,6.356-18.87,10.394-1.639,1.094-4.7,2.966-5.277,4.477-.689,1.82-.479,4.9-.479,7.2,0,7.751,1.272,14.424,1.758,21.267" transform="translate(83 617.228)" fill="#422123" fill-rule="evenodd"/><path d="M522.536-394.792c.041-.78.534-1.562.319-2.239-.4-1.268-4.162-2.955-5.277-3.677a64,64,0,0,0-5.756-3.359,99,99,0,0,0-12.312-5.757c-1.21-.436-2.911,1.106-3.837,1.6-4.715,2.5-8.732,4.862-13.113,7.676-1.075.69-4.347,2.68-4.637,3.358-.621,1.448-.183,4.319-.321,6.237a77.917,77.917,0,0,0,.96,18.387c2.76.93,4.325,2.3,6.717,3.679,3.135,1.808,6.57,3.105,9.753,5.116,1.632,1.033,3.215,2.753,4.8,2.719,1.505-.032,4.524-2.215,6.077-3.038,6.16-3.268,12.293-6.185,17.27-10.075C523.447-381.018,522.226-388.892,522.536-394.792ZM498.87-411.9a140.781,140.781,0,0,1,25.106,14.553c-.152,8.052-.133,17.14.959,24.464-2.926,1.1-5.436,2.941-8.154,4.477-5.491,3.1-11.2,5.766-16.31,9.275-8.023-3.811-15.228-8.439-23.187-12.312a131.326,131.326,0,0,1-1.439-21.907c0-1.54-.192-3.57.159-4.478.5-1.279,3.629-2.851,5.278-3.836,5.945-3.558,12.273-6.783,17.589-10.236" transform="translate(79.889 616.94)" fill="#fff" fill-rule="evenodd"/><path d="M519.46-391.481a.742.742,0,0,1-.161.479c-.28,7.544-1.377,13.459-5.275,17.269-2.759,2.7-6.542,3.648-10.074,5.757a14.273,14.273,0,0,0,11.833-4.957c2.451-2.835,4.151-7.778,4.476-12.634.138-2.049.286-4.52-.478-5.915Zm-6.4-5.757c1.5.155,1.708,1.6,3.038,1.92C516.284-396.915,513.941-399.242,513.064-397.239Zm-16.15-5.277c-3.273,1.454-6.648,2.462-9.276,5.757a20.665,20.665,0,0,0-3.837,14.391,33.8,33.8,0,0,0,1.119,4.157c1.4,5.024,3.876,7.422,8.955,8.8-1.351-2.285-3.634-2.765-5.436-4.8-4.556-5.14-3.335-16.309.479-21.267a18.316,18.316,0,0,1,4.638-3.837c1.678-1.122,3.705-1.649,5.275-3.2C498.128-403.234,497.253-402.665,496.914-402.515Zm7.194.96a1.147,1.147,0,0,0,2.08-.96A1.18,1.18,0,0,0,504.108-401.555ZM502.03-403C498.791-403.61,502.561-399.75,502.03-403Zm19.189,7.836c.314,6.455,0,13.521.479,20.148-6.954,3.972-14.262,7.591-20.468,12.313Q491-368.221,480.924-373.891c-.539-5.914-.346-12.811-.481-18.229-.025-1.046-.5-2.378-.159-3.359s3.372-2.144,4.8-3.038c3.469-2.176,6.186-4.007,9.593-6.077,1.877-1.138,4.025-2.309,5.437-3.038,6.806,4.389,14.211,8.177,21.108,12.473" transform="translate(79.446 616.507)" fill="#f79814" fill-rule="evenodd"/><path d="M522.071-360.529c-3.406,2-6.521,3.936-9.754,6.235-1.34.954-3.9,2.845-4.157,3.52-.491,1.3-.05,4.1,0,5.915.064,2.289.207,4.559.32,6.077.228,3.073,0,9.155,1.119,11.672.836,1.886,5.334,3.792,7.356,4.957,2.8,1.617,5.369,3.783,7.675,4.8.359.158,1.249.267,1.759.482,1.7.711,2.994,2.565,4.317,2.559,1.621-.011,4.461-2.228,5.918-3.04,6.238-3.472,11.536-6.34,16.63-10.552-.066-8.038-.026-16.179-.8-23.506-7.468-4.474-14.61-9.272-23.027-12.793-.1.01-.189.023-.159.159C526.051-363.546,524.654-362.049,522.071-360.529Zm7.2-5.117a140.694,140.694,0,0,1,25.1,14.551,159.975,159.975,0,0,0,.96,24.466c-4.23,1.989-7.877,4.885-11.994,7.2-4.054,2.276-8.479,4.023-12.472,6.555-8.016-3.817-15.276-8.389-23.187-12.314-1.383-6.383-1.053-13.653-1.438-21.745-.072-1.524-.472-3.3-.161-4.319.4-1.311,3.674-3,5.278-4,2.219-1.385,4.239-2.213,5.917-3.2,4.553-2.67,8.07-4.914,11.993-7.2" transform="translate(76.835 612.259)" fill="#f79814" fill-rule="evenodd"/><path d="M478.16-359.938c-1.516-.846-5.413-3.572-6.715-2.718-6.787,4.454-15.169,8.129-21.587,12.472-.676,7.882.216,16.085.8,23.666,4.788,3.539,10.384,6.441,15.83,9.595,1.434.829,4.265,2.76,5.757,2.719.827-.024,1.913-.908,3.038-1.44a150.294,150.294,0,0,0,20.468-11.992c.083-7.035.1-15.287-.8-22.227-5.223-3.086-11.26-6.989-16.791-10.074Zm18.391,9.593c-.2,6.621.013,14.48.319,20.628.056,1.136.54,2.36.159,3.358-.563,1.482-6.225,4.138-7.675,4.958-5.52,3.117-11.208,5.841-16.47,9.274-7.853-3.927-15.189-8.372-23.026-12.312-1.394-6.543-1.056-13.45-1.439-21.587-.073-1.524-.508-3.346-.161-4.478.376-1.219,3.919-3.171,5.277-4,2.249-1.367,4.256-2.224,5.918-3.2,4.1-2.4,7.774-4.927,11.673-6.716,1.611-.739,5.434,1.808,7.356,2.877a160.437,160.437,0,0,1,18.07,11.193" transform="translate(82.688 612.148)" fill="#fff" fill-rule="evenodd"/><path d="M548.492-344.959c-.01.2-.206.221-.161.479a4.53,4.53,0,0,0-.319,1.439c-.351,4.179-.635,7.814-2.078,10.714-1.08,2.168-2.711,3.821-4,5.6-.346.477-1.165,1.028-.96,1.759,4.948-1.719,8.2-7.279,8.634-13.753.15-2.231.257-5.154-.8-6.235h-.32Zm-28.782.64a1.712,1.712,0,0,0,1.438-.481v-1.119C519.991-347.09,518.444-345.175,519.709-344.319Zm26.864-2.879a1.285,1.285,0,0,0,.64-1.44C546.034-350.616,544.065-347.191,546.573-347.2Zm-7.356-6.4a7.289,7.289,0,0,0,3.837,2.718C543.08-352.845,540.529-354.531,539.217-353.6Zm-15.191-3.358a17.471,17.471,0,0,0-7.2,5.277c-2.641,3.384-4.92,11.513-3.677,16.312,1.877,7.248,8.854,12.611,17.11,13.111,3.623.221,6.133.194,7.356-2.4-4.245-.454-7.912.109-11.354-.639a13.715,13.715,0,0,1-6.555-4c-2.267-2.314-4.458-4.838-4.8-8.156-.846-8.256,2.972-15.522,8.953-18.228,2.282-1.032,4.939-1.242,7.516-2.239-2.113-1.285-5.124.046-7.356.959ZM551.37-349.6c-.042,5.029-.014,10.167.159,15.191.044,1.266.455,3.866.161,4.8-.267.842-3.28,2.15-4.477,2.88-1.806,1.1-3.293,1.914-4.638,2.718-4.445,2.659-7.28,5.326-11.993,7.2-5.263-3.817-12.213-7.436-18.07-11.353-1.438-6.238-1.485-13.866-1.438-21.587a190.453,190.453,0,0,1,19.188-12.153c7.284,3.856,13.594,8.686,21.108,12.312" transform="translate(76.319 611.881)" fill="#f79814" fill-rule="evenodd"/><path d="M488.806-330.53c3.691-7.383,1.031-18.983-4.8-22.386h-.479c-.161,1.7,1.559,3.749,2.239,5.756a41.279,41.279,0,0,1,1.92,5.6c.793,4.192.3,9.072-1.28,11.512-1.424,2.2-3.891,3.25-5.917,5.6C484.356-323.8,487.463-327.845,488.806-330.53Zm-12.152-23.506a1.5,1.5,0,0,0,1.6-.159v-.8C477.788-356.065,475.731-355.257,476.654-354.036Zm17.269,6.237c-.539,6.172.227,13.177,0,19.028-6.793,4.347-14.551,8.581-20.627,13.112-6.684-3.764-13.3-7.6-20.149-11.193-.292-6.893-.638-14.15-.959-21.428,2.376-2.048,5.691-3.157,8.475-4.8.151.558-.515.968-.8,1.28-4.094,4.463-7.923,14.558-3.678,22.385,2.638,4.867,6.033,7.4,13.112,8.156,2.209.236,5.419.865,6.557-1.6-1.629-.473-2.925.673-4.318.639a29.774,29.774,0,0,1-5.277-1.439,13.825,13.825,0,0,1-10.074-12.153,19.471,19.471,0,0,1,5.437-16.15c2.907-2.931,6.727-4.7,12.152-4.8-.526-1.56-3.219-1.109-4.8-.8a40.124,40.124,0,0,1,4.157-2.4c6.924,4.055,13.815,8.144,20.788,12.153" transform="translate(82.277 611.683)" fill="#f79814" fill-rule="evenodd"/></g><g transform="translate(-57 -125)"><path d="M218.371-340.843a17.677,17.677,0,0,1-8.412-4.013c-8.719-7.792-10.266-21.464-13-35.938a197.663,197.663,0,0,1-2.485-21.983c-.576-7.71-.959-15.376-2.676-21.983-1.435-.4-2.14.186-3.441.191-1.991,11.745.349,25.079.765,36.893-6.85,2.261-13.8,4.419-19.88,7.455-1.172-9.92-2.207-21.872-3.823-32.5-.293-1.923-1.049-9.4-2.486-9.749-1.394-.336-1.86,1.45-2.675,2.1-.73,15.216.559,31.668,2.294,45.687-.249,1.153-2.038.766-1.72,2.486.382.991,1.935-.356,1.91.381,1.254,10.193,1.871,21.619,4.207,30.967.512,2.05,1.572,7.952,4.205,7.647,1.681-.193,1.939-2.957,2.1-4.971.473-5.8-.983-11.678-1.529-17.776-.54-6.037-1.58-11.893-1.72-17.777,6.145-2.713,12.811-5.922,19.5-7.456,1.25,12.588,3.331,27.689,10.324,36.321.687.847,2,1.67,3.057,2.676,2.877,2.727,6.981,5.771,11.66,5.926,2.195.072,6.163-.572,6.308-1.913.155-1.419-2.061-1.388-2.484-2.676" transform="translate(83 617.228)" fill="#422123" fill-rule="evenodd"/><path d="M268.555-373.09c.536-8.819-9.194-13.922-14.337-17.014-1.159-3.047-3.34-5.07-5.735-6.882,2.52-4.57-1.2-9.6-5.161-10.7.879-3.39,1.49-8.066,3.822-9.367a3.782,3.782,0,0,0,.575,2.867c3.954,2.031,4.246-4.3,1.529-5.161-6.618-.867-6.21,6.905-8.221,11.278-1.167-.148-1.788.25-2.866.191-.055-5.233-2.071-8.506-5.161-10.7-2.69-.24-4.989.327-5.735,2.294s.081,5.223,2.1,5.161c3.267-.1.758-4.444,2.1-5.544,3.594,1.186,4.063,5.5,4.78,9.558-3.637.833-5.143,6.393-3.633,10.513-2.579.533-3.592,3.437-5.542,4.779-1.658,1.139-4.025,1.549-5.927,2.676-6.4,3.8-13.183,8.407-11.852,18.733.23,1.781,2.747,4.654,4.014,5.352,4.319,2.387,8.733-.595,11.852-3.057.819,4.154,3.6,6.226,6.308,8.793,2.15,2.039,3.729,3.666,6.692,4.014,9.853,1.159,13.17-6.828,16.439-12.807,2.216,1.574,5.75,3.824,9.749,2.484,2.59-.867,4.019-4.38,4.205-7.454" transform="translate(77.355 616.597)" fill="#422123" fill-rule="evenodd"/><path d="M322.42-359.606a21.508,21.508,0,0,0,10.134,16.247,15.656,15.656,0,0,0,9.365,2.1c2.8-.273,5.4-1.886,7.456-3.25.948-.63,5.777-4.823,2.1-6.309-1.417-.572-3.523.833-4.778,1.53-1.541.854-2.82,2.086-4.588,2.294-3.508.412-7.85-1.729-9.749-3.824-2.833-3.122-3.46-8.544-3.25-13.954,3.5.221,6.349,1.875,10.322,1.147,2.9-.531,6.4-3.772,8.03-6.5,3.519-5.9,2.762-14.217-.957-18.352-5.971-6.637-16.662-2.6-20.071,2.676-2.581,3.989-2.641,9.1-3.634,14.719-.762,1.692-2.694,1.078-2.675,2.868s2.009,1.222,2.484,2.485c.761,2.02-.334,4.106-.191,6.117" transform="translate(64.588 613.436)" fill="#422123" fill-rule="evenodd"/><path d="M315.78-342.668c-1.366-1.809-3.8.058-5.926-.381-2.645-.545-4.159-7.38-4.4-11.662-.129-2.312.387-4.472.382-6.308-.019-8.736.048-21.025-4.589-24.659-2.406-1.887-6.923-1.929-10.131-.765-2.3.835-3.381,3.079-5.351,3.441-.008-2.031.185-4.264-1.529-4.588-1.089,1.194-1.7-.116-2.867.573-2.248,10.3-2.3,24.916-2.3,37.658,0,4.157-.678,9.073,2.3,11.088,4.143-3.33,3.729-11.3,4.014-18.926.227-6.032.563-12.3.382-17.777,1.344-1.077,2.33-3.008,4.4-3.822,1.811-.716,5.513-1.161,7.073-.191,1.867,1.16,3.18,8.036,3.25,12.042.083,4.965-.716,9.374-.382,13.954.359,4.933,1.928,9.935,3.632,12.235,2.616,3.533,11.534,5.169,12.042-1.913" transform="translate(69.317 612.937)" fill="#422123" fill-rule="evenodd"/><path d="M367.856-385h-.575c-1.871,1.618-3.934,9.1-2.1,11.853,5.423.709,2.928-8.686,2.676-11.853" transform="translate(59.488 612.638)" fill="#422123" fill-rule="evenodd"/><path d="M415.029-380.913c1.289.6,1.173,2.709,2.867,2.486,1.758-.234,1.364-3.359.382-4.589-2.677-3.353-10.306.08-6.69,3.441,1.641.048,2.268-.917,3.441-1.338" transform="translate(54.178 612.568)" fill="#422123" fill-rule="evenodd"/><path d="M408.591-368.829c1.7-1.862,1.749-5.387,2.675-8.03-4.3-3-7.51,7.588-2.675,8.03" transform="translate(54.691 611.764)" fill="#422123" fill-rule="evenodd"/><path d="M417.678-368.816a3.634,3.634,0,0,0,2.105.575,9.718,9.718,0,0,0,.762-7.074c-4-1.631-3.929,4.174-2.867,6.5" transform="translate(53.439 611.557)" fill="#422123" fill-rule="evenodd"/><path d="M368.256-359.248c.841-2.565-.374-6.2-.382-9.175-4.594-2.945-4.181,9.774.382,9.175" transform="translate(59.47 610.783)" fill="#422123" fill-rule="evenodd"/><path d="M407.1-355.419c2.667-.605.549-6.313,1.148-9.367-.59-.453-.962-.945-1.914-.572-1.333,1.607-2.8,10.75.766,9.939" transform="translate(54.84 610.394)" fill="#422123" fill-rule="evenodd"/><path d="M416.112-356.667c2.52.461,4.125-6.451,3.441-7.839-3.435-1.705-6.041,7.362-3.441,7.839" transform="translate(53.669 610.306)" fill="#422123" fill-rule="evenodd"/><path d="M367-353.949a8.3,8.3,0,0,0,1.722,5.161c.929,1.227,4.6,3.476,5.16.957.263-1.163-1.108-2.066-1.91-3.06-1.477-1.828-2.3-4.528-4.971-3.058" transform="translate(59.197 609.115)" fill="#422123" fill-rule="evenodd"/><path d="M407.447-349.995c-1.805-4.872-3.291,1.789-3.443,4.205-3.073.113-4.666,1.706-6.117,3.442.387.76,1.252,1.042,1.722,1.72a11.653,11.653,0,0,0,4.4-.765c1.949,4.391,4.53-1.776,3.825-5.354,2.457.309,6.171-4,5.925-5.352-.576-3.139-5.492,1.122-6.307,2.1" transform="translate(55.644 608.985)" fill="#422123" fill-rule="evenodd"/><path d="M383.311-341.249c.164-1.838-4.9-4.562-6.308-4.014a1.682,1.682,0,0,0-1.147,1.53c-.1,3.047,7.165,5.765,7.455,2.484" transform="translate(58.178 608.076)" fill="#422123" fill-rule="evenodd"/><path d="M244.361-343.324c-5.06-1.265-2.456,8.605-.575,8.793,2.759.276,2.2-7.443.575-8.793" transform="translate(73.641 607.858)" fill="#422123" fill-rule="evenodd"/><path d="M387.95-341.835c-3.328.911-1.016,3.189.955,4.014,2.6,1.087,6.692.389,5.927-2.676-.415-1.663-4.667-1.945-6.882-1.338" transform="translate(56.98 607.707)" fill="#422123" fill-rule="evenodd"/><path d="M399.832-326.955a2.107,2.107,0,0,0,2.1.763c1.4-2.533,3.607-6.142,2.867-9.557-3.388.333-4.886,5.153-4.969,8.793" transform="translate(55.42 606.974)" fill="#422123" fill-rule="evenodd"/><path d="M247.678-320.666c1.631-2.415-.5-11.2-4.014-7.837.514,2.713.736,8.228,4.014,7.837" transform="translate(73.383 606.227)" fill="#422123" fill-rule="evenodd"/><path d="M397.7-322.789c-2.03.073-7.448,7.586-3.058,7.837,2.263.129,6.172-7.949,3.058-7.837" transform="translate(56.209 605.483)" fill="#422123" fill-rule="evenodd"/><path d="M248.289-317.189c-3.2,1.226,2.413,9.1,4.014,8.793,1.582-.3,1.2-2.683.19-4.78-.846-1.763-2.133-4.808-4.2-4.013" transform="translate(72.962 604.854)" fill="#422123" fill-rule="evenodd"/><path d="M389.478-312.869a3.871,3.871,0,0,0-.959.381c-1.007.853-6.49,7.077-2.484,7.456,1.424.134,5.764-5.644,5.736-6.883-.034-1.385-1.758-1.1-2.293-.955" transform="translate(57.173 604.356)" fill="#422123" fill-rule="evenodd"/><path d="M257.167-305.954c-3.856-.8-2.295,3.239-1.146,4.4a7.6,7.6,0,0,0,4.205,2.486c.042-.149.159-.223.382-.191,1.416-2.339-2.3-6.453-3.442-6.69" transform="translate(72.112 603.559)" fill="#422123" fill-rule="evenodd"/><path d="M381.256-303.788c-1.554.209-5.377,3.729-4.971,5.926,1.751,1.9,3.265-.207,4.778-1.529,1.6-1.4,4.171-4.933.194-4.4" transform="translate(58.132 603.304)" fill="#422123" fill-rule="evenodd"/><path d="M264.429-297.738c-1.227.392-1.838,1.229-1.148,3.058.461,1.22,4.326,3.462,5.352,3.25a1.73,1.73,0,0,0,1.339-1.529c.271-2.046-4.181-5.215-5.543-4.779" transform="translate(71.16 602.606)" fill="#422123" fill-rule="evenodd"/><path d="M371.149-295.37c-1.936,1.135-6.191,3.343-6.308,6.116a5.535,5.535,0,0,0,2.1.383c1.2-.172,6.5-4.083,6.31-5.352-.109-.7-1.412-1.553-2.1-1.147" transform="translate(59.445 602.341)" fill="#422123" fill-rule="evenodd"/><path d="M273.771-291.708c-.893.419-1.161.91-.956,2.1.441,2.574,7.213,4.748,7.264,1.53.03-1.91-4.392-4.533-6.308-3.632" transform="translate(70.037 601.929)" fill="#422123" fill-rule="evenodd"/><path d="M359.1-287.588c-1.64.607-6.377,1.906-5.925,4.588,1.052,2.077,8.076-1.868,7.835-3.441a1.671,1.671,0,0,0-1.91-1.147" transform="translate(60.79 601.441)" fill="#422123" fill-rule="evenodd"/><path d="M283.187-285.824c-.535,3.2,4.9,4.161,7.263,3.823,3.664-3.248-6.64-7.555-7.263-3.823" transform="translate(68.841 601.397)" fill="#422123" fill-rule="evenodd"/><path d="M293.557-280.906c.029,2.431,5.547,2.872,7.266,2.676,3.243-3.5-7.307-6.6-7.266-2.676" transform="translate(67.644 600.876)" fill="#422123" fill-rule="evenodd"/><path d="M341.674-280.676c-1.659,3.29,2.219,2.734,4.208,2.1,1.8-.57,3.709-1.158,3.441-2.676-.46-2.61-6.2-.025-7.649.573" transform="translate(62.156 600.837)" fill="#422123" fill-rule="evenodd"/><path d="M305.007-278.137c.165,2.317,5.722,2.778,7.837,1.72,1.457-4.125-8.091-5.293-7.837-1.72" transform="translate(66.328 600.592)" fill="#422123" fill-rule="evenodd"/><path d="M333.289-279.387c-1.943.117-5.893-.039-4.971,2.676.612,1.809,8.577,1.069,8.03-1.72-.275-1.389-1.162-1.07-3.058-.956" transform="translate(63.662 600.504)" fill="#422123" fill-rule="evenodd"/><path d="M317.091-275.468c1.214,1.627,5.658.858,7.455.191,2.362-3.98-8.647-4.95-7.455-.191" transform="translate(64.947 600.408)" fill="#422123" fill-rule="evenodd"/><path d="M248.642-396.4c-2.9-1.312-6.605.015-9.559.382a6.328,6.328,0,0,1,.575-5.352c2.884-3.476,12.443.414,8.984,4.97" transform="translate(73.948 614.675)" fill="#f79814" fill-rule="evenodd"/><path d="M250.855-390.06c-4.136.375-8.5-.671-12.809-.765,3.364-3.03,9.712-1.247,12.809.765" transform="translate(74.029 613.495)" fill="#f79814" fill-rule="evenodd"/><path d="M217.905-370.851c1.015.3,1.514-1.049,2.1-1.72,1.529-1.748,3.289-3.438,4.205-5.543.106,0,.218-.155,0-.191-2.476,1.988-5.3,4.631-6.307,7.455Zm13.762-15.675c-1.3,1.438-3.12,2.36-3.823,4.4,1.722-.637,3.653-2.719,5.545-3.823-.755,7.3-4.8,15.56-9.94,20.072a10.593,10.593,0,0,1-8.794,2.293,8.406,8.406,0,0,1-1.912-7.646c1.235-5.434,7.867-10.733,13.572-13.572,2.035-1.011,3.251-2.232,5.352-1.72" transform="translate(76.967 612.828)" fill="#fff" fill-rule="evenodd"/><path d="M239.1-385.862a69.793,69.793,0,0,0,8.221.956,8.393,8.393,0,0,1,.765,1.72H238.91a8.254,8.254,0,0,0,.191-2.676" transform="translate(73.93 612.738)" fill="#f79814" fill-rule="evenodd"/><path d="M256.65-384.159c0-.185.234-.149.381-.191,2.839,1.882,6.4,3.946,9.368,6.882,1.762,1.744,4.214,4.8,3.823,8.221-.346,3.031-3.5,5.18-7.646,3.822a11.538,11.538,0,0,1-3.632-2.866c-3.372-3.715-5.11-10.837-7.073-15.294,2.7-1.772,3.871.868,5.351,2.485,2.634,2.876,5.448,7.358,7.839,9.94-1.155-5.217-5.121-9.279-8.411-13" transform="translate(72.439 612.564)" fill="#fff" fill-rule="evenodd"/><path d="M330.494-370.017c1.521-4.66,1.844-14.954,8.412-14.337,2.067.195,6.064,1.231,6.882,2.676,1.862,3.283-.3,9.541-3.25,11.278-3.676,2.168-7.936,1.073-12.044.382" transform="translate(63.395 612.567)" fill="#fff" fill-rule="evenodd"/><path d="M249.093-375.926c.922,2.074,1.921,4.07,2.868,6.117a69.685,69.685,0,0,1-17.587-1.912,17.248,17.248,0,0,1,1.913-4.205h12.806" transform="translate(74.451 611.595)" fill="#f79814" fill-rule="evenodd"/><path d="M253.03-362.956a12.534,12.534,0,0,1-.957,2.1c-7.357-.415-15.822.277-21.409-1.91a3.343,3.343,0,0,1,.383-3.441,67.38,67.38,0,0,0,21.983,3.248" transform="translate(74.912 610.477)" fill="#f79814" fill-rule="evenodd"/><path d="M236.967-355.189c3.949.418,7.732-.06,11.85,0,.214.513-.808,1.479-1.528,1.91-3.856,2.314-8.871,1.8-10.322-1.91" transform="translate(74.153 609.21)" fill="#f79814" fill-rule="evenodd"/></g></g></svg>